<?xml version="1.0" encoding="UTF-8"?>
<svg id="Layer_1" data-name="Layer 1" xmlns="http://www.w3.org/2000/svg" viewBox="0 0 364.85 400">
  <g id="Layer_1-2" data-name="Layer 1-2">
    <g>
      <path d="M99.86,106.05c8.52-13.56,17.36-26.86,26.51-39.96-6.85-10.22-13.85-20.33-20.96-30.34-3.49-4.89-6.97-9.76-10.51-14.63-.24,2.62-.46,5.22-.63,7.84-1.87,23.29-3.11,46.76-3.77,70.39-.2,6.22-.31,12.47-.4,18.72-.03,1.29-.06,2.62-.06,3.95.61-1.03,1.24-2.1,1.9-3.14,2.6-4.29,5.24-8.58,7.91-12.82h0Z"/>
      <path d="M257.19,189.1c-.47-.12-.94-.25-1.42-.36l-.53-.13.03.03c-1.28-.29-2.56-.57-3.87-.8-4.26-.75-8.67-1.15-13.15-1.15-.26,0-.55,0-.81.02h-.11s-.52,0-1.6.03c-.73.01-1.45-.15-2.1-.48-19.03-9.68-33.1-17.2-38.82-20.39-5.1-2.84-10.53-5.96-10.53-5.96-2.05-1.15-4.09-2.33-6.13-3.54,1.41.11,2.84.2,4.28.29,2.97.24,5.94.43,8.93.61.87.06,1.75.11,2.65.15h.03c4.26.26,8.56.49,12.82.69,3.37.15,6.77.29,10.13.4,3.86.15,7.69.26,11.55.35.06.03.09.03.15,0h.55c2.73.09,5.46.15,8.21.19,1.65.02,3.15.97,3.88,2.45.73,1.48,1.35,2.73,1.79,3.61,1.08,2.19,1.96,4.02,3.54,6.24,0,0,2.07,2.86,3.87,3.33.48.12.97.25,1.46.37.35.11.72.2,1.09.29,11.8,3.11,23.72,5.96,35.7,8.58,2.82.66,5.64,1.27,8.49,1.84,1.7.37,3.37.72,5.07,1.07h.03c2.56.61,5.09,1.18,7.66,1.79-.09-.09-.15-.17-.2-.26.31.06.61.11.92.17-1.99-1.81-4-3.6-6.01-5.33-1.75-1.59-3.51-3.14-5.27-4.63-7.57-6.66-15.2-13.19-22.91-19.63-22.91-19.24-46.47-37.78-70.63-55.51-4.11-3.05-8.23-6.07-12.38-9.04-.03-.03-.09-.06-.11-.09-1.01-.72-2.05-1.47-3.05-2.19-.03-.75-.03-1.5-.03-2.25-.03-.06-.03-.09-.03-.15-.03-1.09-.06-2.21-.06-3.34v-.55c-.03-.49-.03-.98-.03-1.47-.03-1.96-.06-3.95-.09-5.9-.03-3.6-.06-7.23-.06-10.83,0-22.72.75-45.29,2.25-67.63-2.05,2.45-4.11,4.89-6.19,7.38-.2.26-.43.55-.66.81-.06.09-.15.17-.2.26-2.99,3.63-5.96,7.29-8.89,10.94-.83.98-1.61,1.99-2.39,2.97-2.65,3.32-5.27,6.66-7.86,9.99-.89,1.12-1.75,2.25-2.62,3.37-2.42,3.14-4.83,6.31-7.25,9.5-1.12,1.53-2.27,3.05-3.4,4.58-2.71,3.63-5.42,7.29-8.06,10.97-3.83,5.3-7.6,10.62-11.31,15.98-8.23,11.86-16.23,23.9-23.92,36.13-2.3,3.56-4.55,7.2-6.73,10.83-2.27,3.65-4.49,7.31-6.68,11-2.1,3.49-4.15,6.97-6.16,10.46-.17.26-.31.49-.43.75-5.23,9.01-10.31,18.11-15.26,27.3-.12.24-.26.46-.38.69-.06.09-.09.17-.15.26-.03.03-.03.06-.06.09-.17.31-.34.64-.51.96-.36.67-.72,1.36-1.08,2.03-.84,1.59-1.7,3.16-2.53,4.76-.78,1.47-1.53,2.91-2.27,4.37-.24.4-.46.83-.66,1.24-.29.55-.56,1.12-.84,1.69-2.95,5.71-5.85,11.46-8.68,17.24-1.42,2.86-2.79,5.73-4.17,8.61-1.07,2.18-2.1,4.4-3.13,6.6-.66,1.41-1.32,2.81-1.98,4.22-1.11,2.38-2.24,4.76-3.33,7.15-.83,1.84-1.66,3.71-2.51,5.59-.4.89-.81,1.79-1.21,2.68-1.24,2.82-2.47,5.64-3.74,8.49-.4,1.01-.83,1.99-1.27,2.99-.53,1.21-1.05,2.45-1.57,3.69-.75,1.77-1.5,3.53-2.23,5.3-.04.11-.1.22-.15.34-1.15,2.73-2.27,5.48-3.4,8.21-.45,1.07-.87,2.16-1.3,3.24-.61,1.51-1.23,3.01-1.83,4.53-.02.04-.04.1-.06.15-1.38,3.43-2.73,6.91-4.06,10.37-.03.02-.03.09-.06.11,0,.02-.03.02-.03.06-.06.15-.11.29-.15.43-.31.82-.62,1.63-.92,2.45-.72,1.87-1.43,3.74-2.12,5.62-.53,1.39-1.07,2.8-1.59,4.19-1.38,3.71-2.73,7.45-4.06,11.2v.02c-.72,2.01-1.44,4.05-2.12,6.09-.06.17-.11.31-.17.49-.03.03-.06.09-.06.11-.03.09-.06.17-.09.26-.09.17-.15.37-.2.55s-.11.35-.17.52c-.03.09-.06.17-.09.26-.09.26-.2.55-.29.83-.03.09-.07.18-.09.26l-.2.6c-.03.11-.07.21-.11.33-.03.03-.03.09-.03.11-.06.11-.09.26-.15.4v.03c-.03.11-.06.2-.11.35-.03.09-.06.2-.11.29-.11.35-.24.66-.35,1.01-.17.49-.31.98-.49,1.47-.3.88-.6,1.77-.89,2.65-.37,1.09-.73,2.19-1.1,3.28-.13.43-.29.85-.43,1.28-1.73,5.17-3.41,10.34-5.01,15.55h0c3.49-2.75,6.99-5.52,10.51-8.23,2.06-1.62,4.13-3.17,6.21-4.76.08-.06.17-.12.25-.19.16-.11.33-.21.48-.35,2.88-2.19,5.76-4.37,8.67-6.53.96-.72,1.9-1.41,2.86-2.1,1.25-.93,2.47-1.86,3.72-2.77.33-.24.65-.48.98-.72,1.12-.82,2.25-1.64,3.38-2.46,3.29-2.38,6.6-4.76,9.92-7.09,1.87-1.3,3.76-2.62,5.64-3.92,1.62-1.12,3.23-2.25,4.86-3.36,1.07-.74,2.14-1.48,3.24-2.21.9-.63,1.8-1.23,2.71-1.83,1.8-1.21,3.6-2.43,5.41-3.63,2.21-1.48,4.44-2.96,6.68-4.41l1.92-1.25s.06-.03.08-.04c.03-.02.07-.04.1-.07,2.12-1.38,4.24-2.78,6.39-4.15.49-.31.99-.63,1.48-.94,3.88-2.47,7.78-4.94,11.7-7.36,4.69-2.93,9.44-5.81,14.22-8.67,6.42-3.83,12.9-7.6,19.44-11.29,7.43-4.26,14.94-8.38,22.49-12.38,3.95-2.12,7.89-4.2,11.83-6.25h.03c12.21-6.31,24.53-12.38,37.02-18.22,4.41-2.05,8.84-4.06,13.3-6.01,12.21-5.5,24.55-10.74,37.02-15.72,1.84-.75,3.65-1.5,5.5-2.21-1.84,1.01-3.69,2.05-5.53,3.08-11.57,6.51-23.04,13.21-34.31,20.18-.17.11-.37.22-.55.31-.09.06-.17.11-.26.17-.03.03-.06.03-.09.06,0,0-.03,0-.03.03-4.63,2.79-9.15,5.68-13.7,8.58-11.25,7.17-22.37,14.59-33.31,22.23-2.59,1.79-5.18,3.6-7.75,5.44-4.89,3.45-9.74,6.97-14.54,10.53-5,3.72-7.71,5.75-10.4,7.75-12.19,9.11-31.43,22.77-39.5,31.47-3.22,3.46-4.63,5.99-5.04,7.05-.92,2.39-1.83,4.8-2.74,7.21-.72,1.93-1.44,3.83-2.1,5.76-.17.45-.33.91-.49,1.37-.6,1.62-1.19,3.25-1.78,4.87-.1.29-.21.57-.31.87-.57,1.59-1.16,3.19-1.73,4.81-.72,2.05-1.44,4.09-2.12,6.14-.73,2.09-1.43,4.17-2.14,6.26-.3.89-.6,1.78-.9,2.66-1.03,3.07-2.06,6.14-3.07,9.24v.02c-.03.11-.06.24-.11.35-1.03,3.16-2.01,6.35-3,9.55-.21.67-.43,1.35-.64,2.02-.04.13-.09.28-.13.42-1.24,4.02-2.45,8.03-3.63,12.06-.06.18-.11.35-.17.52-.55,1.84-1.09,3.69-1.61,5.53-.06.2-.11.43-.17.63-.24.72-.44,1.44-.63,2.16-.13.48-.11.47.06-.02.52-.48,1.03-.96,1.55-1.44,13.26-12.38,26.81-24.42,40.74-36.08,22.52-18.85,45.86-36.76,69.99-53.61,4.63-3.26,9.32-6.44,14.01-9.61,3.02-2.05,4.53-3.07,6.42-4.32,7.22-4.76,13.57-8.57,15.25-9.51,8.89-5.04,23.2-7.33,35.88-5.69,4.19.54,15.86,3.74,39.01,10.19.46.12,1.17.33,2.16.49,9.11,1.52,17.02-3.96,20.68-6.48,9.06-6.26,29.89-30.86,53.58-67.36v-.02l-107.6-27.02-.06-.08Z"/>
    </g>
  </g>
</svg>