<?xml version="1.0" encoding="UTF-8"?>
<svg id="Layer_2" data-name="Layer 2" xmlns="http://www.w3.org/2000/svg" viewBox="0 0 1256.33 390.04">
  <defs>
    <style>
      .cls-1 {
        fill: #fff;
        stroke-width: 0px;
      }
    </style>
  </defs>
  <g id="Layer_1-2" data-name="Layer 1">
    <g>
      <g>
        <polygon class="cls-1" points="458.9 274.1 458.9 145.63 413.71 145.63 413.71 123.04 529.32 123.04 529.32 145.63 484.14 145.63 484.14 274.1 458.9 274.1"/>
        <path class="cls-1" d="M625.69,274.1v-62.81c0-8.96-2.29-15.84-6.8-20.44-4.53-4.61-11-6.94-19.22-6.94-9.34,0-16.72,3.18-21.93,9.45-5.12,6.16-7.71,14.78-7.71,25.64v55.11h-24.55V119.47h24.55v60.05h7.32l.55-1.11c1.1-2.2,2.86-4.45,5.25-6.69,2.36-2.22,5.6-4.1,9.63-5.58,4.06-1.5,9.36-2.26,15.74-2.26,8.35,0,15.73,1.92,21.96,5.71,6.22,3.79,11.12,9.09,14.56,15.75,3.46,6.7,5.22,14.67,5.22,23.67v65.08h-24.55Z"/>
        <path class="cls-1" d="M721.05,274.1c-10.79,0-20.41-2.32-28.6-6.89-8.16-4.55-14.61-11.07-19.16-19.38-4.57-8.35-6.89-18.36-6.89-29.75v-2.72c0-11.39,2.28-21.41,6.79-29.76,4.48-8.31,10.85-14.83,18.94-19.37,8.12-4.57,17.7-6.88,28.48-6.88s19.94,2.38,27.75,7.08c7.8,4.69,13.95,11.29,18.29,19.61,4.36,8.36,6.57,18.23,6.57,29.33v7.74h-81.89l.08,2.08c.32,8.23,3.44,15.04,9.28,20.23,5.79,5.15,12.94,7.76,21.27,7.76s14.89-1.93,19.03-5.74c3.39-3.12,6.12-6.58,8.13-10.31l19.71,10.33c-1.97,3.3-4.63,6.89-7.93,10.68-3.81,4.38-8.97,8.18-15.34,11.3-6.35,3.1-14.59,4.67-24.5,4.67ZM720.37,180.28c-8.16,0-14.78,2.15-19.67,6.38-4.88,4.23-7.92,9.89-9.05,16.83l-.38,2.32h57.12l-.2-2.19c-.65-7-3.52-12.71-8.51-16.97-4.96-4.23-11.46-6.37-19.31-6.37Z"/>
        <path class="cls-1" d="M836.29,274.1c-14.18,0-25.93-3.09-34.91-9.17-8.37-5.67-13.69-13.76-15.81-24.07l22.48-5.81c1.15,4.64,2.93,8.43,5.28,11.28,2.72,3.3,6.14,5.68,10.18,7.08,3.89,1.35,8.19,2.04,12.78,2.04,7.16,0,12.36-1.28,15.92-3.9,3.7-2.73,5.57-6.2,5.57-10.33s-1.84-7.47-5.47-9.74c-3.27-2.04-8.24-3.65-15.21-4.92l-6.35-1.13c-7.66-1.47-14.78-3.53-21.13-6.12-6.16-2.5-11.16-6.01-14.86-10.42-3.6-4.29-5.42-9.95-5.42-16.84,0-10.6,3.73-18.48,11.42-24.11,7.77-5.68,18.2-8.57,31-8.57,12.07,0,22.22,2.71,30.16,8.04,7.28,4.9,12.3,11.29,14.93,19l-22.57,6.95c-1.46-5.17-4.05-8.99-7.71-11.38-4.02-2.62-9-3.95-14.8-3.95s-10.38,1.06-13.56,3.16c-3.45,2.27-5.21,5.47-5.21,9.49,0,4.32,1.91,7.7,5.54,9.78,3.2,1.84,7.54,3.26,12.89,4.2l6.34,1.13c8.31,1.48,15.94,3.48,22.67,5.92,6.52,2.36,11.73,5.76,15.49,10.08,3.66,4.22,5.51,10.06,5.51,17.38,0,11.22-3.93,19.63-12.01,25.71-8.14,6.12-19.29,9.23-33.13,9.23Z"/>
        <path class="cls-1" d="M897.7,274.1v-108.4h24.55v108.4h-24.55ZM909.98,148.55c-4.66,0-8.47-1.45-11.66-4.44-3.16-2.95-4.69-6.78-4.69-11.68s1.53-8.73,4.69-11.68c3.2-2.99,7.01-4.45,11.66-4.45s8.64,1.45,11.76,4.43c3.09,2.96,4.59,6.78,4.59,11.7s-1.5,8.74-4.59,11.7c-3.12,2.98-6.97,4.43-11.76,4.43Z"/>
        <path class="cls-1" d="M985.33,274.14c-14.18,0-25.93-3.09-34.91-9.17-8.37-5.67-13.69-13.76-15.81-24.07l22.48-5.81c1.15,4.64,2.93,8.43,5.28,11.28,2.72,3.3,6.14,5.68,10.18,7.08,3.89,1.35,8.19,2.04,12.78,2.04,7.16,0,12.36-1.28,15.92-3.9,3.7-2.73,5.57-6.2,5.57-10.33s-1.84-7.47-5.47-9.74c-3.27-2.04-8.24-3.65-15.21-4.92l-6.35-1.13c-7.66-1.47-14.78-3.53-21.13-6.12-6.16-2.51-11.16-6.01-14.86-10.42-3.6-4.29-5.42-9.95-5.42-16.84,0-10.6,3.73-18.48,11.42-24.11,7.77-5.68,18.2-8.57,31-8.57,12.07,0,22.22,2.71,30.16,8.04,7.28,4.9,12.3,11.29,14.93,19l-22.57,6.95c-1.46-5.17-4.05-8.99-7.71-11.38-4.02-2.62-9-3.95-14.8-3.95s-10.38,1.06-13.56,3.16c-3.45,2.27-5.21,5.47-5.21,9.49,0,4.32,1.91,7.7,5.54,9.78,3.2,1.84,7.54,3.26,12.89,4.2l6.34,1.13c8.31,1.48,15.94,3.48,22.67,5.92,6.51,2.36,11.73,5.76,15.49,10.08,3.66,4.22,5.51,10.06,5.51,17.38,0,11.22-3.93,19.63-12.01,25.71-8.14,6.12-19.29,9.23-33.13,9.23Z"/>
        <path class="cls-1" d="M1066.14,274.1c-5.56,0-10.1-1.78-13.91-5.45-3.78-3.64-5.62-8.25-5.62-14.08s1.84-10.44,5.62-14.08c3.8-3.66,8.35-5.45,13.91-5.45s10.28,1.78,14.01,5.43c3.71,3.65,5.52,8.26,5.52,14.1s-1.81,10.45-5.52,14.09c-3.73,3.66-8.31,5.43-14.01,5.43Z"/>
        <path class="cls-1" d="M1101.79,274.02v-108.4h24.55v108.4h-24.55ZM1114.06,148.47c-4.66,0-8.47-1.45-11.66-4.44-3.16-2.95-4.69-6.78-4.69-11.68s1.53-8.73,4.69-11.68c3.19-2.99,7.01-4.45,11.66-4.45s8.64,1.45,11.76,4.43c3.09,2.96,4.59,6.79,4.59,11.7s-1.5,8.74-4.59,11.7c-3.12,2.98-6.96,4.43-11.76,4.43Z"/>
        <path class="cls-1" d="M1199.41,274.1c-10.81,0-20.65-2.21-29.23-6.58-8.53-4.34-15.35-10.72-20.26-18.96-4.93-8.26-7.42-18.36-7.42-30.02v-3.63c0-11.67,2.5-21.77,7.42-30.02,4.91-8.24,11.73-14.62,20.26-18.96,8.59-4.37,18.42-6.58,29.23-6.58s20.64,2.21,29.23,6.58c8.53,4.34,15.35,10.72,20.26,18.96,4.93,8.26,7.42,18.36,7.42,30.02v3.63c0,11.66-2.5,21.76-7.42,30.02-4.92,8.24-11.74,14.62-20.26,18.96-8.59,4.37-18.43,6.58-29.23,6.58ZM1199.41,180.73c-9.27,0-17.06,3.05-23.16,9.07-6.11,6.03-9.21,14.7-9.21,25.78v2.27c0,11.08,3.1,19.76,9.21,25.79,6.1,6.02,13.89,9.07,23.16,9.07s17.06-3.05,23.16-9.07c6.11-6.03,9.21-14.71,9.21-25.79v-2.27c0-11.08-3.06-19.75-9.08-25.78-6.03-6.03-13.86-9.08-23.28-9.08Z"/>
      </g>
      <g id="Layer_1-2" data-name="Layer 1-2">
        <g>
          <path class="cls-1" d="M97.37,103.41c8.31-13.22,16.93-26.19,25.85-38.96-6.68-9.97-13.51-19.82-20.43-29.59-3.4-4.77-6.8-9.52-10.25-14.26-.23,2.55-.45,5.09-.61,7.64-1.82,22.71-3.04,45.59-3.67,68.64-.2,6.06-.31,12.16-.39,18.25-.03,1.26-.05,2.55-.05,3.85.59-1.01,1.21-2.05,1.85-3.06,2.53-4.19,5.11-8.36,7.72-12.5h0Z"/>
          <path class="cls-1" d="M250.78,184.39c-.46-.12-.92-.24-1.38-.35l-.52-.13.03.03c-1.25-.29-2.5-.56-3.77-.78-4.15-.73-8.45-1.12-12.83-1.12-.25,0-.54,0-.79.02h-.11s-.5,0-1.56.03c-.71.01-1.41-.14-2.05-.47-18.56-9.44-32.27-16.77-37.85-19.89-4.98-2.77-10.27-5.81-10.27-5.81-2-1.12-3.99-2.27-5.97-3.45,1.37.11,2.77.2,4.18.29,2.89.23,5.79.42,8.7.59.84.05,1.71.11,2.59.14h.03c4.15.25,8.34.48,12.5.67,3.29.14,6.6.29,9.88.39,3.76.14,7.5.25,11.26.34.05.03.09.03.14,0h.54c2.66.09,5.33.14,8,.19,1.61.02,3.07.94,3.78,2.39.71,1.45,1.32,2.66,1.74,3.52,1.05,2.14,1.91,3.92,3.45,6.08,0,0,2.02,2.78,3.77,3.24.47.12.94.24,1.43.36.34.11.7.2,1.06.29,11.51,3.04,23.13,5.81,34.81,8.36,2.75.65,5.5,1.24,8.28,1.8,1.66.36,3.29.7,4.94,1.04h.03c2.5.59,4.97,1.15,7.47,1.74-.09-.09-.14-.16-.2-.25.31.05.59.11.9.16-1.94-1.76-3.9-3.51-5.87-5.2-1.71-1.55-3.42-3.06-5.14-4.52-7.38-6.49-14.82-12.86-22.34-19.14-22.34-18.76-45.31-36.83-68.87-54.12-4.01-2.97-8.02-5.92-12.07-8.81-.03-.03-.09-.05-.11-.09-.99-.7-2-1.44-2.97-2.14-.03-.73-.03-1.46-.03-2.19-.03-.05-.03-.09-.03-.14-.03-1.06-.05-2.16-.05-3.26v-.54c-.03-.48-.03-.95-.03-1.44-.03-1.91-.05-3.85-.09-5.76-.03-3.51-.05-7.05-.05-10.56,0-22.16.73-44.16,2.19-65.94-2,2.39-4.01,4.77-6.04,7.19-.2.25-.42.54-.65.79-.05.09-.14.16-.2.25-2.92,3.54-5.81,7.1-8.67,10.67-.81.95-1.57,1.94-2.34,2.89-2.59,3.23-5.14,6.49-7.66,9.75-.87,1.1-1.71,2.19-2.55,3.29-2.36,3.06-4.71,6.15-7.07,9.26-1.1,1.49-2.21,2.97-3.31,4.46-2.64,3.54-5.28,7.1-7.86,10.7-3.74,5.16-7.41,10.36-11.03,15.58-8.02,11.57-15.83,23.31-23.33,35.23-2.25,3.48-4.44,7.02-6.57,10.56-2.21,3.56-4.37,7.13-6.51,10.72-2.05,3.4-4.05,6.8-6.01,10.2-.16.25-.31.48-.42.73-5.1,8.78-10.05,17.66-14.88,26.62-.12.23-.25.45-.37.67-.05.09-.09.16-.14.25-.03.03-.03.05-.05.09-.16.31-.33.62-.49.93-.35.66-.7,1.33-1.05,1.98-.82,1.55-1.66,3.08-2.47,4.64-.76,1.44-1.49,2.84-2.21,4.26-.23.39-.45.81-.65,1.21-.29.54-.55,1.1-.82,1.64-2.87,5.57-5.7,11.17-8.46,16.81-1.38,2.78-2.72,5.59-4.07,8.4-1.04,2.13-2.05,4.29-3.05,6.44-.65,1.37-1.28,2.74-1.93,4.11-1.09,2.32-2.18,4.64-3.24,6.97-.81,1.8-1.62,3.62-2.44,5.45-.39.87-.79,1.74-1.18,2.61-1.21,2.75-2.41,5.5-3.65,8.28-.39.99-.81,1.94-1.24,2.92-.52,1.18-1.02,2.39-1.53,3.6-.73,1.72-1.46,3.44-2.17,5.16-.04.11-.1.22-.14.33-1.12,2.66-2.21,5.34-3.31,8-.44,1.04-.84,2.1-1.27,3.16-.59,1.47-1.19,2.94-1.79,4.42-.02.04-.04.1-.05.14-1.35,3.34-2.66,6.74-3.96,10.11-.03.02-.03.09-.05.11,0,.02-.03.02-.03.05-.05.14-.11.29-.14.42-.31.8-.6,1.59-.9,2.39-.7,1.82-1.39,3.65-2.07,5.48-.52,1.36-1.04,2.73-1.55,4.09-1.35,3.62-2.66,7.27-3.96,10.92v.02c-.7,1.96-1.4,3.95-2.07,5.94-.05.16-.11.31-.16.48-.03.03-.05.09-.05.11-.03.09-.05.16-.09.25-.09.16-.14.36-.2.54s-.11.34-.16.5c-.03.09-.05.16-.09.25-.09.25-.2.54-.29.81-.03.09-.07.18-.09.25l-.2.58c-.03.11-.07.21-.11.32-.03.03-.03.09-.03.11-.05.11-.09.25-.14.39v.03c-.03.11-.05.2-.11.34-.03.09-.05.2-.11.29-.11.34-.23.65-.34.99-.16.48-.31.95-.48,1.44-.3.86-.58,1.72-.87,2.59-.36,1.06-.71,2.14-1.07,3.2-.13.42-.29.83-.42,1.25-1.69,5.04-3.32,10.09-4.89,15.16h0c3.4-2.69,6.82-5.38,10.25-8.02,2.01-1.58,4.02-3.09,6.05-4.64.08-.05.16-.12.24-.19.15-.11.32-.21.47-.34,2.81-2.14,5.61-4.26,8.45-6.37.93-.7,1.85-1.37,2.78-2.05,1.22-.91,2.41-1.81,3.63-2.7.32-.23.64-.47.95-.7,1.1-.8,2.19-1.6,3.3-2.4,3.21-2.32,6.44-4.64,9.67-6.92,1.82-1.27,3.66-2.55,5.5-3.83,1.58-1.1,3.15-2.19,4.74-3.28,1.04-.72,2.08-1.45,3.16-2.16.88-.61,1.75-1.19,2.64-1.79,1.75-1.18,3.51-2.37,5.27-3.54,2.16-1.45,4.33-2.88,6.51-4.3l1.87-1.22s.05-.03.08-.04c.03-.02.07-.04.1-.07,2.07-1.35,4.13-2.71,6.23-4.05.48-.31.96-.61,1.45-.92,3.78-2.41,7.59-4.81,11.41-7.18,4.57-2.86,9.21-5.67,13.87-8.45,6.26-3.74,12.57-7.41,18.95-11.01,7.25-4.15,14.57-8.17,21.93-12.07,3.85-2.07,7.7-4.1,11.53-6.1h.03c11.91-6.15,23.92-12.07,36.1-17.77,4.3-2,8.62-3.96,12.97-5.87,11.91-5.36,23.94-10.47,36.1-15.33,1.8-.73,3.56-1.46,5.36-2.16-1.8.99-3.6,2-5.39,3-11.28,6.35-22.46,12.88-33.46,19.68-.16.11-.36.22-.54.31-.09.05-.16.11-.25.16-.03.03-.05.03-.09.05,0,0-.03,0-.03.03-4.52,2.72-8.92,5.54-13.36,8.36-10.97,6.99-21.82,14.23-32.48,21.67-2.52,1.74-5.05,3.51-7.55,5.31-4.77,3.37-9.49,6.8-14.17,10.27-4.88,3.63-7.52,5.6-10.14,7.55-11.88,8.88-30.65,22.2-38.51,30.68-3.14,3.38-4.52,5.84-4.91,6.87-.9,2.34-1.79,4.68-2.67,7.03-.7,1.89-1.4,3.74-2.05,5.61-.16.44-.32.89-.48,1.34-.58,1.58-1.16,3.17-1.73,4.75-.1.29-.21.56-.31.84-.56,1.55-1.13,3.11-1.69,4.69-.7,2-1.4,3.99-2.07,5.99-.71,2.04-1.39,4.07-2.08,6.11-.3.87-.58,1.73-.88,2.6-1.01,2.99-2.01,5.99-2.99,9.01v.02c-.03.11-.05.23-.11.34-1.01,3.08-1.96,6.19-2.93,9.31-.21.66-.42,1.32-.62,1.97-.04.13-.09.27-.13.41-1.21,3.92-2.39,7.83-3.54,11.76-.05.18-.11.34-.16.5-.54,1.8-1.06,3.6-1.57,5.39-.05.2-.11.42-.16.61-.23.7-.43,1.4-.61,2.1-.12.47-.11.46.05-.02.5-.47,1.01-.93,1.51-1.4,12.93-12.07,26.15-23.81,39.73-35.18,21.96-18.38,44.72-35.85,68.24-52.27,4.52-3.18,9.09-6.28,13.66-9.37,2.95-2,4.42-2.99,6.26-4.21,7.04-4.64,13.23-8.35,14.87-9.27,8.67-4.91,22.63-7.15,34.98-5.55,4.09.53,15.47,3.65,38.04,9.93.45.12,1.14.32,2.1.48,8.88,1.48,16.6-3.86,20.16-6.31,8.84-6.11,29.15-30.09,52.25-65.68v-.02l-104.92-26.34-.05-.08Z"/>
        </g>
      </g>
    </g>
  </g>
</svg>